<svg version="1.2" xmlns="http://www.w3.org/2000/svg" viewBox="0 0 120 30" width="1000" height="250">
	<title>logo-svg</title>
	<style>
		tspan { white-space:pre } 
		.s0 { fill: #000000 } 
		.t1 { font-size: 18px;fill: #000000;font-weight: 900;font-family: "Montserrat-Black", "Montserrat" } 
	</style>
	<path id="Layer" fill-rule="evenodd" class="s0" d="m27.2 12.1c2.2 2.4 2.6 5.9 0.9 8.7-1 1.9-2.8 3.2-4.9 3.6-1 3.1-3.9 5.1-7.1 5.1-2.1 0-4.1-0.9-5.5-2.4-3.2 0.6-6.4-0.8-8-3.6-1.1-1.8-1.3-4-0.7-6.1-2.1-2.4-2.5-5.9-0.9-8.7 1.1-1.8 2.8-3.1 4.9-3.5 1-3.1 3.9-5.2 7.1-5.2 2.1 0 4.2 0.9 5.6 2.5 3.1-0.7 6.4 0.7 8 3.5 1.1 1.9 1.3 4.1 0.6 6.1zm-9.8-7.1l-5.7 3.3v2.9l6.9-4c0.3-0.2 0.6-0.2 0.9 0l5.9 3.4c0.1 0 0.1 0.1 0.2 0.1 0.2-1.3 0-2.6-0.7-3.7-1.5-2.6-4.9-3.6-7.5-2zm-5.7 11.4l2.9 1.7 2.9-1.7v-3.3l-2.9-1.7-2.9 1.7zm1.3-14.5c-3 0-5.5 2.4-5.5 5.5v6.6l2.5 1.4v-7.9c0-0.4 0.2-0.7 0.5-0.9l5.9-3.3c0-0.1 0.1-0.1 0.2-0.1-1-0.9-2.3-1.3-3.6-1.3zm-8.3 15.3l5.7 3.3 2.5-1.5-6.9-4c-0.3-0.1-0.4-0.5-0.4-0.8v-7c-1.3 0.5-2.3 1.3-2.9 2.4-1.6 2.7-0.6 6.1 2 7.6zm7.1 7.3l5.7-3.3v-2.9l-6.9 4c-0.3 0.1-0.7 0.1-1 0l-5.9-3.4c0-0.1-0.1-0.1-0.1-0.1-0.3 1.2 0 2.6 0.6 3.7 1.5 2.6 4.9 3.5 7.6 2zm9.8-2.5v-6.5l-2.5-1.5v7.9c0 0.4-0.2 0.7-0.5 0.9l-5.8 3.4c-0.1 0-0.2 0.1-0.2 0.1 1 0.8 2.2 1.3 3.5 1.3 3.1 0 5.5-2.5 5.5-5.6zm4.8-2.2c1.6-2.7 0.7-6-2-7.6l-5.7-3.3-2.5 1.5 6.9 4c0.3 0.2 0.5 0.5 0.5 0.8v7c1.2-0.4 2.2-1.3 2.9-2.4z"/>
	<text id="PiyushAI" style="transform: matrix(1,0,0,1,31.582,20.707)" >
		<tspan x="0" y="0" class="t1">P</tspan><tspan  y="0" class="t1">i</tspan><tspan  y="0" class="t1">y</tspan><tspan  y="0" class="t1">u</tspan><tspan  y="0" class="t1">s</tspan><tspan  y="0" class="t1">h</tspan><tspan  y="0" class="t1">A</tspan><tspan  y="0" class="t1">I
</tspan>
	</text>
</svg>